<svg xmlns="http://www.w3.org/2000/svg" width="32" height="32" viewBox="0 0 32 32"><defs><style>.a{fill:#fff;}</style></defs><g transform="translate(0 0)"><path class="a" d="M31.46,13.4a1.6,1.6,0,0,0-2.249.122c-.035.037-3.6,3.737-13.211,3.737S2.827,13.569,2.8,13.543A1.593,1.593,0,0,0,.007,14.6H0V29.53H.01A1.593,1.593,0,0,0,2.789,30.6c.038-.037,3.6-3.737,13.211-3.737s13.173,3.7,13.2,3.729a1.593,1.593,0,0,0,2.789-1.062H32V14.6h-.01A1.589,1.589,0,0,0,31.46,13.4ZM1.067,24.791,2.54,26.805a12.449,12.449,0,0,0-1.473,1.042Zm2.409,1.486L1.067,22.983V20.41l3.806,5.211C4.359,25.839,3.893,26.059,3.476,26.277ZM5.9,25.225,1.067,18.6V16.28c.122.1.261.213.418.329l5.942,8.13c-.546.151-1.049.317-1.523.486Zm2.638-.769L3.851,18.04a20.214,20.214,0,0,0,2.66,1.069l3.67,5.019c-.576.1-1.122.208-1.641.329Zm2.832-.507L8.182,19.586c.685.169,1.419.32,2.209.45l2.729,3.733q-.911.071-1.747.18Zm3.016-.25-2.531-3.463c.64.073,1.3.13,2,.169l2.382,3.262c-.082,0-.16,0-.243,0-.556,0-1.09.015-1.611.036Zm3.2,0-2.37-3.245c.258.005.516.01.782.01q.556,0,1.088-.015l2.475,3.383q-.946-.091-1.976-.133Zm3.422.3L18.369,20.39q.922-.056,1.771-.153l3.034,4.152c-.674-.148-1.4-.278-2.164-.387Zm3.787.8-3.457-4.73q.871-.133,1.659-.3l4.341,5.942a21.6,21.6,0,0,0-2.54-.91Zm4.66,2-5.333-7.3q.822-.213,1.547-.457l5.263,7.2v1.594A12.54,12.54,0,0,0,29.459,26.8Zm-1.321-8.759,2.8,3.829v2.571L26.715,18.67C27.234,18.466,27.708,18.256,28.137,18.045Zm.953-.5a12.934,12.934,0,0,0,1.844-1.261v3.787ZM1.249,14.2a.529.529,0,0,1,.351-.132h.036a.538.538,0,0,1,.373.189C2.046,14.3,5.844,18.33,16,18.33c10.178,0,13.962-4.043,14-4.085a.533.533,0,0,1,.8.7C30.642,15.13,26.792,19.4,16,19.4S1.358,15.13,1.2,14.948a.533.533,0,0,1,.05-.753Zm29.5,15.736a.543.543,0,0,1-.757-.053C29.842,29.711,26.128,25.8,16,25.8,5.822,25.8,2.038,29.84,2,29.882a.533.533,0,0,1-.8-.7C1.358,29,5.208,24.73,16,24.73S30.642,29,30.8,29.179a.533.533,0,0,1-.05.752Z" transform="translate(0 -6.064)"/><path class="a" d="M25.48,0a1.067,1.067,0,0,0-1.067,1.067V4.8H23.4a.8.8,0,0,0-.609,1.319l3.147,3.733.006.007a.8.8,0,0,0,1.211-.007l3.139-3.726a.8.8,0,0,0-.6-1.327H28.68V1.067A1.067,1.067,0,0,0,27.613,0Zm2.933,5.867h.705L26.547,8.919,23.974,5.867h.706a.8.8,0,0,0,.8-.8v-4h2.133v4a.8.8,0,0,0,.8.8Z" transform="translate(-10.547 0)"/><path class="a" d="M25.482,51.145h2.133a1.067,1.067,0,0,0,1.067-1.067V46.345H29.7a.8.8,0,0,0,.609-1.319l-3.152-3.74a.826.826,0,0,0-1.2,0l-.006.007L22.8,45.018a.8.8,0,0,0,.6,1.327h1.013v3.733A1.067,1.067,0,0,0,25.482,51.145Zm-1.505-5.867,2.572-3.053,2.572,3.053h-.706a.8.8,0,0,0-.8.8v4H25.482v-4a.8.8,0,0,0-.8-.8Z" transform="translate(-10.549 -19.145)"/></g></svg>