<svg xmlns="http://www.w3.org/2000/svg" width="31.973" height="32" viewBox="0 0 31.973 32"><defs><style>.a{fill:#fff;}</style></defs><g transform="translate(-0.294)"><path class="a" d="M51.206,53.659a2.745,2.745,0,1,0-2.745-2.746A2.746,2.746,0,0,0,51.206,53.659Zm0-4.426a1.68,1.68,0,1,1-1.68,1.68A1.68,1.68,0,0,1,51.206,49.233Zm0,0" transform="translate(-44.96 -44.961)"/><path class="a" d="M30.133,25.158l-.206-5.375,1-1.379-1.215-2.234.244-.751,2.3-1.093V12.1l-2.3-1.093-.244-.751L30.93,8.023l-1.308-1.8-2.5.465-.639-.465L26.152,3.7l-2.115-.688-1.75,1.846H21.5l-1.75-1.846L17.632,3.7l-.1.786-7.4-.441-.5-.5L9.494,2.431l-2-.83-.89.695H5.887L4.995,1.6,3,2.43,2.86,3.549l-.511.511L1.23,4.2.4,6.2l.7.892v.723L.4,8.7l.66,1.592L.325,19.716a3.072,3.072,0,0,0-.028.362v.02h0v.042A3.192,3.192,0,0,0,4.78,23.061l3.152-1.314a3.176,3.176,0,0,0,1.4,3.81L4.467,27.126a3.2,3.2,0,0,0,.621,6.33h.028L24.73,32.427l.3.72,1.694.347L28.1,32.159l.35-.116,1.9.245L31.5,31l-.469-1.858.075-.362,1.162-1.524-.544-1.641ZM18.6,4.508l.836-.272,1.6,1.69h1.7l1.6-1.69.837.272.3,2.309,1.38,1,2.29-.426.516.711-1.112,2.046.527,1.622,2.1,1v.879l-2.1,1-.527,1.622,1.112,2.046-.516.711-2.29-.426-1.38,1-.3,2.309-.837.272-1.6-1.69h-1.7l-1.6,1.69L18.6,21.92l-.3-2.308-1.38-1-2.291.426-.517-.711,1.112-2.045L14.7,14.656l-2.1-1v-.879l2.1-1,.527-1.622L14.111,8.106l.517-.711,2.291.426,1.38-1ZM1.625,6.031l.351-.852.868-.107L3.874,4.045l.107-.868.852-.352.689.538H6.978l.686-.536.852.352.106.867L9.649,5.075l.868.106.352.852-.538.689V8.179l.538.689-.352.852-.868.107L8.62,10.856l-.107.868-.852.352-.689-.538H5.518l-.689.538-.852-.352-.107-.868L2.842,9.821l-.867-.106-.351-.852.538-.689V6.72ZM1.359,20.149l.006-.083a2.016,2.016,0,1,1-.006.083Zm9.588.523A2.131,2.131,0,1,1,8.817,22.8,2.131,2.131,0,0,1,10.947,20.672ZM2.957,30.26a2.13,2.13,0,0,1,1.235-1.927l.515-.166a2.128,2.128,0,1,1,.4,4.223H5.081A2.131,2.131,0,0,1,2.957,30.26Zm4.62,2a3.185,3.185,0,0,0-.852-4.741l5.2-1.674a3.2,3.2,0,1,0-2.184-6L6.507,21.193A3.19,3.19,0,0,0,1.562,17.6L2.1,10.8l.258.032.511.511L3,12.466l2,.827.89-.692h.723l.889.692,1.992-.825.138-1.119.511-.511,1.119-.138.827-2L11.4,7.814V7.088l.693-.89L11.68,5.21l5.713.338-.088.677-.639.464-2.5-.465-1.308,1.8,1.215,2.234-.243.749-2.3,1.095v2.225l2.3,1.093.244.751-1.215,2.234,1.308,1.8,2.5-.465.639.464.33,2.522,2.115.688,1.75-1.846h.789l1.75,1.846,2.115-.688.33-2.521.639-.465,1.752.326L29,23.4l-.136-.326-1.694-.348-1.378,1.335-.35.117-1.9-.245L22.4,25.224l.468,1.859-.075.362-1.162,1.524.546,1.641,1.844.524.276.245v0ZM30.11,28.322l-.173.839.39,1.548-.4.45-1.584-.2-.812.269-1.146,1.112-.59-.12-.615-1.473-.639-.569-1.536-.437-.191-.572.969-1.269.172-.838-.39-1.549.4-.451,1.584.2.812-.27,1.146-1.112L28.1,24l.615,1.474.639.567,1.536.436.19.572Zm0,0" transform="translate(0 -1.495)"/><path class="a" d="M34.424,265.065A1.065,1.065,0,1,1,33.358,264,1.065,1.065,0,0,1,34.424,265.065Zm0,0" transform="translate(-29.869 -246.421)"/><path class="a" d="M146.424,305.065A1.065,1.065,0,1,1,145.358,304,1.065,1.065,0,0,1,146.424,305.065Zm0,0" transform="translate(-134.411 -283.758)"/><path class="a" d="M58.424,417.065A1.065,1.065,0,1,1,57.358,416,1.065,1.065,0,0,1,58.424,417.065Zm0,0" transform="translate(-52.271 -388.3)"/><path class="a" d="M362.956,360a2.663,2.663,0,1,0,2.663,2.663A2.663,2.663,0,0,0,362.956,360Zm0,4.261a1.6,1.6,0,1,1,1.6-1.6A1.6,1.6,0,0,1,362.956,364.261Zm0,0" transform="translate(-336.029 -336.029)"/><path class="a" d="M245.62,106.654a5.327,5.327,0,1,0-5.327-5.327A5.327,5.327,0,0,0,245.62,106.654Zm0-9.588a4.261,4.261,0,1,1-4.261,4.261A4.261,4.261,0,0,1,245.62,97.065Zm0,0" transform="translate(-224.019 -89.608)"/><path class="a" d="M275.489,134.392a3.2,3.2,0,1,0-3.2-3.2A3.2,3.2,0,0,0,275.489,134.392Zm0-5.327a2.131,2.131,0,1,1-2.131,2.131A2.131,2.131,0,0,1,275.489,129.065Zm0,0" transform="translate(-253.888 -119.477)"/><path class="a" d="M432.293,1.6a1.6,1.6,0,1,0,1.6-1.6A1.6,1.6,0,0,0,432.293,1.6Zm2.131,0a.533.533,0,1,1-.533-.533A.533.533,0,0,1,434.424,1.6Zm0,0" transform="translate(-403.235 0)"/><path class="a" d="M194.424,1.065A1.065,1.065,0,1,1,193.358,0,1.065,1.065,0,0,1,194.424,1.065Zm0,0" transform="translate(-179.215)"/></g></svg>