<svg xmlns="http://www.w3.org/2000/svg" width="37.046" height="39.692" viewBox="0 0 37.046 39.692"><defs><style>.a{fill:#fff;}</style></defs><g transform="translate(-16)"><g transform="translate(22.615 22.492)"><path class="a" d="M101.292,272a5.292,5.292,0,1,0,5.292,5.292A5.292,5.292,0,0,0,101.292,272Zm0,9.261a3.969,3.969,0,1,1,3.969-3.969A3.969,3.969,0,0,1,101.292,281.261Z" transform="translate(-96 -272)"/></g><g transform="translate(16 15.877)"><path class="a" d="M39.154,201.261H36.082A8.5,8.5,0,0,0,35.56,200l2.172-2.171a.662.662,0,0,0,0-.935l-2.808-2.807a.662.662,0,0,0-.935,0l-2.171,2.171a8.539,8.539,0,0,0-1.264-.523v-3.071a.662.662,0,0,0-.662-.662H25.923a.662.662,0,0,0-.662.662v3.072a8.537,8.537,0,0,0-1.264.523l-2.171-2.171a.662.662,0,0,0-.935,0l-2.808,2.807a.662.662,0,0,0,0,.935L20.256,200a8.5,8.5,0,0,0-.523,1.264H16.662a.662.662,0,0,0-.662.662v3.969a.662.662,0,0,0,.662.662h3.071a8.494,8.494,0,0,0,.523,1.264l-2.172,2.171a.662.662,0,0,0,0,.935l2.808,2.807a.662.662,0,0,0,.935,0L24,211.56a8.537,8.537,0,0,0,1.264.523v3.072a.662.662,0,0,0,.662.662h3.969a.662.662,0,0,0,.662-.662v-3.072a8.535,8.535,0,0,0,1.264-.523l2.171,2.171a.662.662,0,0,0,.935,0l2.808-2.807a.662.662,0,0,0,0-.935l-2.172-2.171a8.494,8.494,0,0,0,.523-1.264h3.071a.662.662,0,0,0,.662-.662v-3.969A.662.662,0,0,0,39.154,201.261Zm-.662,3.969H35.585a.662.662,0,0,0-.64.5,7.234,7.234,0,0,1-.774,1.871.662.662,0,0,0,.1.8l2.055,2.055-1.871,1.871L32.4,210.273a.661.661,0,0,0-.8-.1,7.223,7.223,0,0,1-1.87.774.662.662,0,0,0-.5.64v2.907H26.585v-2.907a.662.662,0,0,0-.5-.64,7.223,7.223,0,0,1-1.87-.774.661.661,0,0,0-.8.1l-2.055,2.055-1.871-1.871,2.055-2.055a.661.661,0,0,0,.1-.8,7.233,7.233,0,0,1-.774-1.871.662.662,0,0,0-.64-.5H17.323v-2.647H20.23a.662.662,0,0,0,.64-.5,7.233,7.233,0,0,1,.774-1.871.661.661,0,0,0-.1-.8l-2.055-2.055,1.872-1.871,2.055,2.055a.661.661,0,0,0,.8.1,7.222,7.222,0,0,1,1.87-.774.662.662,0,0,0,.5-.64v-2.906h2.646v2.907a.662.662,0,0,0,.5.64,7.222,7.222,0,0,1,1.87.774.661.661,0,0,0,.8-.1l2.055-2.055,1.872,1.871-2.055,2.055a.662.662,0,0,0-.1.8,7.234,7.234,0,0,1,.774,1.871.662.662,0,0,0,.64.5h2.906Z" transform="translate(-16 -192)"/></g><g transform="translate(23.938)"><path class="a" d="M135.154,11.246h-2.11c-.154-3.837-1.66-10.025-6.49-10.545V.662A.662.662,0,0,0,125.892,0h-3.969a.662.662,0,0,0-.662.662V.7c-4.829.521-6.335,6.709-6.49,10.545h-2.11a.662.662,0,0,0-.662.662v2.646a.662.662,0,0,0,.662.662h22.492a.662.662,0,0,0,.662-.662V11.908A.662.662,0,0,0,135.154,11.246Zm-.662,2.646H113.323V12.569h5.292V11.246H116.1c.138-3.353,1.352-8.657,5.165-9.211v5.9h1.323V1.323h2.646V7.938h1.323v-5.9c3.813.553,5.028,5.858,5.165,9.211H119.938v1.323h14.554Z" transform="translate(-112)"/></g><g transform="translate(39.815 15.877)"><path class="a" d="M316.569,196.631h-1.162l.822-.822a.662.662,0,0,0,0-.935L314.358,193a.662.662,0,0,0-.935,0l-.822.822v-1.162a.662.662,0,0,0-.662-.662h-2.646a.662.662,0,0,0-.662.662v1.162l-.822-.822a.662.662,0,0,0-.935,0L305,194.873a.662.662,0,0,0,0,.935l.822.822h-1.162a.662.662,0,0,0-.662.662v2.646a.662.662,0,0,0,.662.662h1.162l-.822.822a.662.662,0,0,0,0,.935l1.871,1.871a.662.662,0,0,0,.935,0l.822-.822v1.163a.662.662,0,0,0,.662.662h2.646a.662.662,0,0,0,.662-.662v-1.163l.822.822a.681.681,0,0,0,.935,0l1.871-1.871a.662.662,0,0,0,0-.935l-.822-.822h1.162a.662.662,0,0,0,.662-.662v-2.646A.662.662,0,0,0,316.569,196.631Zm-.662,2.646h-1.554a.661.661,0,0,0-.622.438q-.058.165-.132.323a.662.662,0,0,0,.132.753l1.1,1.1-.94.935-1.1-1.1a.661.661,0,0,0-.751-.132,3.364,3.364,0,0,1-.322.132.662.662,0,0,0-.441.624v1.559h-1.323v-1.554a.662.662,0,0,0-.441-.624,3.353,3.353,0,0,1-.322-.132.661.661,0,0,0-.751.132l-1.1,1.1-.935-.935,1.1-1.1a.662.662,0,0,0,.132-.753q-.074-.158-.132-.323a.662.662,0,0,0-.629-.438h-1.554v-1.323h1.554a.661.661,0,0,0,.622-.438q.058-.165.132-.324a.662.662,0,0,0-.132-.753l-1.094-1.1.935-.935,1.1,1.1a.662.662,0,0,0,.753.132,3.1,3.1,0,0,1,.32-.132.662.662,0,0,0,.441-.629v-1.554h1.323v1.554a.661.661,0,0,0,.441.624,3.089,3.089,0,0,1,.319.132.662.662,0,0,0,.753-.132l1.1-1.1.935.935-1.1,1.1a.662.662,0,0,0-.132.753q.074.158.132.324a.662.662,0,0,0,.622.438h1.561Z" transform="translate(-304 -192)"/></g><g transform="translate(43.784 19.846)"><path class="a" d="M354.646,240a2.646,2.646,0,1,0,2.646,2.646A2.646,2.646,0,0,0,354.646,240Zm0,3.969a1.323,1.323,0,1,1,1.323-1.323A1.323,1.323,0,0,1,354.646,243.969Z" transform="translate(-352 -240)"/></g></g></svg>